<svg version="1.1" xmlns="http://www.w3.org/2000/svg" viewBox="0 0 1189.1240346957102 348.62939402236634" width="1189.1240346957102" height="348.62939402236634">
  <!-- svg-source:excalidraw -->
  
  <defs>
    <style class="style-fonts">
      @font-face {
        font-family: "Virgil";
        src: url("https://excalidraw.com/Virgil.woff2");
      }
      @font-face {
        font-family: "Cascadia";
        src: url("https://excalidraw.com/Cascadia.woff2");
      }
      @font-face {
        font-family: "Assistant";
        src: url("https://excalidraw.com/Assistant-Regular.woff2");
      }
    </style>
    
  </defs>
  <rect x="0" y="0" width="1189.1240346957102" height="348.62939402236634" fill="#ffffff"></rect><g stroke-linecap="round" transform="translate(10.231992467452017 278.20714326762754) rotate(0 109.82028361222729 25.488704634394708)"><path d="M0 0 C0 0, 0 0, 0 0 M0 0 C0 0, 0 0, 0 0 M0.13 12.04 C2.33 9.06, 8.38 5.21, 10.63 -0.03 M0.13 12.04 C3.78 7.17, 8.6 2.99, 10.63 -0.03 M0.27 24.08 C4.55 17.55, 11.26 10.7, 21.26 -0.07 M0.27 24.08 C5.78 16.54, 12.82 10, 21.26 -0.07 M-0.26 36.88 C6.53 26.04, 15.35 19.67, 31.89 -0.1 M-0.26 36.88 C8.55 26.08, 16.94 16.04, 31.89 -0.1 M-0.12 48.92 C13.19 30.3, 29.75 15.18, 42.52 -0.14 M-0.12 48.92 C17.88 29.27, 32.79 10.36, 42.52 -0.14 M5.26 54.92 C25.24 33.59, 41.41 10.86, 53.15 -0.17 M5.26 54.92 C15.29 42.66, 26.83 29.62, 53.15 -0.17 M15.23 55.64 C27.54 41.25, 41.24 26.54, 63.78 -0.21 M15.23 55.64 C31.71 36.25, 48.27 18.07, 63.78 -0.21 M25.86 55.61 C39.12 40.65, 56.39 22.45, 74.41 -0.24 M25.86 55.61 C38.62 40.34, 50.74 27.2, 74.41 -0.24 M36.49 55.57 C55.59 35.79, 71.94 13.45, 85.04 -0.28 M36.49 55.57 C54.98 34.44, 75.42 11.6, 85.04 -0.28 M47.12 55.54 C61 41.03, 72.41 22.3, 95.67 -0.31 M47.12 55.54 C58.32 43.39, 68.87 29.06, 95.67 -0.31 M57.75 55.5 C71.97 39.17, 88.89 18.77, 106.3 -0.34 M57.75 55.5 C68.8 42.89, 78.9 30.55, 106.3 -0.34 M68.38 55.47 C79.29 42.48, 89.51 31.46, 116.27 0.38 M68.38 55.47 C78.63 42.55, 90.7 30.06, 116.27 0.38 M79.01 55.43 C96.36 35.03, 117.83 14.24, 126.91 0.34 M79.01 55.43 C94.96 36.89, 111.52 19.53, 126.91 0.34 M89.64 55.4 C103.46 38.68, 119.07 19.88, 137.54 0.31 M89.64 55.4 C105.53 37.27, 122.89 16.18, 137.54 0.31 M100.27 55.37 C109.13 42.61, 119.75 33.05, 148.17 0.27 M100.27 55.37 C112.25 41.47, 122.5 30.59, 148.17 0.27 M110.9 55.33 C123.1 44.93, 134.13 30.15, 158.8 0.24 M110.9 55.33 C126.72 36.37, 143.4 17.87, 158.8 0.24 M121.53 55.3 C140.42 35.57, 159.49 13.8, 169.43 0.2 M121.53 55.3 C135.44 39.69, 148.23 24.68, 169.43 0.2 M132.16 55.26 C148.38 35.28, 165.57 20.74, 180.06 0.17 M132.16 55.26 C148.29 36.17, 167.09 15.54, 180.06 0.17 M142.79 55.23 C158.97 38.6, 174.04 21.38, 190.69 0.13 M142.79 55.23 C153.1 42.32, 165.5 27.99, 190.69 0.13 M153.42 55.19 C163.38 44.86, 174.73 32.65, 201.32 0.1 M153.42 55.19 C172.73 33.72, 190.86 11.95, 201.32 0.1 M164.05 55.16 C178.77 36.24, 196.33 18.78, 211.95 0.06 M164.05 55.16 C179.86 36.76, 195.5 19.94, 211.95 0.06 M174.68 55.12 C185.38 43.03, 196.91 30.73, 221.26 1.54 M174.68 55.12 C186.61 41.25, 196.97 29.07, 221.26 1.54 M185.31 55.09 C197.47 40.21, 214.1 24.81, 221.4 13.58 M185.31 55.09 C196.16 41.81, 209.36 26.53, 221.4 13.58 M195.94 55.06 C201.69 46.04, 208.15 39.89, 221.53 25.62 M195.94 55.06 C204.99 44.03, 213.44 35.1, 221.53 25.62 M206.57 55.02 C213.76 49.08, 216.31 44.27, 221.01 38.42 M206.57 55.02 C211.88 49.68, 217.08 43.37, 221.01 38.42" stroke="#a5d8ff" stroke-width="1" fill="none"></path><path d="M0 0 C75.86 0.17, 152.27 0.8, 219.64 0 M0 0 C85.02 -0.26, 171.47 0.45, 219.64 0 M219.64 0 C219.32 11.6, 220.89 23.34, 219.64 50.98 M219.64 0 C220.43 10.94, 220.21 21.85, 219.64 50.98 M219.64 50.98 C144.43 52.03, 71.3 52.09, 0 50.98 M219.64 50.98 C167.95 50.48, 115.45 50.6, 0 50.98 M0 50.98 C1.56 32.35, -1.73 16.98, 0 0 M0 50.98 C-0.91 34.35, -0.33 18.58, 0 0" stroke="#1e1e1e" stroke-width="2" fill="none"></path></g><g transform="translate(50.922347490812115 291.19584790202225) rotate(0 69.12992858886719 12.5)"><text x="69.12992858886719" y="0" font-family="Virgil, Segoe UI Emoji" font-size="20px" fill="#1e1e1e" text-anchor="middle" style="white-space: pre;" direction="ltr" dominant-baseline="text-before-edge">PREROUTING</text></g><g stroke-linecap="round" transform="translate(970.2687889022454 284.0568910193888) rotate(0 104.42762289673237 27.286251501488778)"><path d="M0 0 C0 0, 0 0, 0 0 M0 0 C0 0, 0 0, 0 0 M0.13 12.04 C5.04 8.3, 7.69 2.43, 10.63 -0.03 M0.13 12.04 C3.56 7.72, 8.79 2.25, 10.63 -0.03 M0.27 24.08 C6.57 18.74, 10.21 8.95, 21.26 -0.07 M0.27 24.08 C5.32 19.23, 9.52 12.2, 21.26 -0.07 M-0.26 36.88 C8.78 26.69, 20.38 12.41, 31.89 -0.1 M-0.26 36.88 C7.16 28.38, 13.58 20.25, 31.89 -0.1 M-0.12 48.92 C9.69 37.16, 18.85 27.36, 42.52 -0.14 M-0.12 48.92 C8.92 37.39, 19.82 26.25, 42.52 -0.14 M5.26 54.92 C22.61 34.52, 44.08 13.73, 53.15 -0.17 M5.26 54.92 C21.21 36.37, 37.76 19.02, 53.15 -0.17 M15.89 54.89 C29.7 38.17, 45.31 19.36, 63.78 -0.21 M15.89 54.89 C31.77 36.76, 49.13 15.66, 63.78 -0.21 M26.52 54.85 C35.38 42.09, 46 32.54, 74.41 -0.24 M26.52 54.85 C38.5 40.96, 48.74 30.08, 74.41 -0.24 M37.15 54.82 C49.35 44.42, 60.37 29.64, 85.04 -0.28 M37.15 54.82 C52.96 35.86, 69.64 17.36, 85.04 -0.28 M47.78 54.78 C66.67 35.05, 85.74 13.29, 95.67 -0.31 M47.78 54.78 C61.68 39.18, 74.48 24.16, 95.67 -0.31 M58.41 54.75 C74.62 34.76, 91.82 20.23, 106.3 -0.34 M58.41 54.75 C74.53 35.66, 93.34 15.03, 106.3 -0.34 M69.04 54.71 C85.01 38.33, 99.88 21.34, 116.27 0.38 M69.04 54.71 C79.19 41.99, 91.44 27.84, 116.27 0.38 M79.67 54.68 C89.48 44.51, 100.68 32.47, 126.91 0.34 M79.67 54.68 C98.72 33.5, 116.59 12.03, 126.91 0.34 M90.3 54.65 C104.8 35.97, 122.15 18.77, 137.54 0.31 M90.3 54.65 C105.89 36.49, 121.32 19.91, 137.54 0.31 M100.93 54.61 C111.78 42.35, 123.46 29.88, 148.17 0.27 M100.93 54.61 C113.02 40.55, 123.54 28.18, 148.17 0.27 M111.56 54.58 C127.84 34.84, 148.72 14.54, 158.8 0.24 M111.56 54.58 C126.07 36.96, 142.99 17.39, 158.8 0.24 M122.19 54.54 C133.85 38.62, 146.3 25.57, 169.43 0.2 M122.19 54.54 C138.75 34.86, 154.91 17.06, 169.43 0.2 M132.82 54.51 C152.42 34.44, 167.34 15.4, 180.06 0.17 M132.82 54.51 C149.08 36.4, 165.14 17.59, 180.06 0.17 M143.45 54.47 C157.6 38.28, 167.98 24.37, 190.69 0.13 M143.45 54.47 C161.8 32.69, 179.64 12.28, 190.69 0.13 M154.08 54.44 C164.8 43.28, 172.54 34.38, 201.32 0.1 M154.08 54.44 C172.98 34.5, 190.38 13.14, 201.32 0.1 M164.71 54.4 C175.77 40.27, 189.66 28.38, 209.32 3.08 M164.71 54.4 C174.79 44.49, 183.49 32.07, 209.32 3.08 M175.34 54.37 C187.09 42.88, 197.78 30.99, 209.45 15.12 M175.34 54.37 C189.55 39.59, 201.64 24.71, 209.45 15.12 M185.97 54.33 C194.37 46.13, 199.64 37.39, 208.93 27.92 M185.97 54.33 C194.58 45.29, 201.73 36.47, 208.93 27.92 M195.94 55.06 C200 50.1, 204.84 43.57, 209.06 39.96 M195.94 55.06 C199.21 51.7, 202.93 46.37, 209.06 39.96 M206.57 55.02 C207.15 54.44, 207.63 53.85, 209.2 52 M206.57 55.02 C207.57 54.09, 208.52 52.95, 209.2 52" stroke="#a5d8ff" stroke-width="1" fill="none"></path><path d="M0 0 C67.01 -0.89, 131.79 0.13, 208.86 0 M0 0 C67.93 0.26, 134.76 -0.2, 208.86 0 M208.86 0 C210.98 14.23, 207.41 31.66, 208.86 54.57 M208.86 0 C209.94 16.76, 209.09 30.83, 208.86 54.57 M208.86 54.57 C146.28 55.83, 84.22 53.87, 0 54.57 M208.86 54.57 C165.03 54.1, 122.4 54.56, 0 54.57 M0 54.57 C-0.02 39.03, 0.66 24.88, 0 0 M0 54.57 C-0.68 36.43, -0.9 18.33, 0 0" stroke="#1e1e1e" stroke-width="2" fill="none"></path></g><g transform="translate(997.706482599759 298.84314252087734) rotate(0 76.98992919921875 12.5)"><text x="76.98992919921875" y="0" font-family="Virgil, Segoe UI Emoji" font-size="20px" fill="#1e1e1e" text-anchor="middle" style="white-space: pre;" direction="ltr" dominant-baseline="text-before-edge">POSTROUTING</text></g><g stroke-linecap="round" transform="translate(248.2058950214771 118.09061288647581) rotate(0 99.63414447026867 30.28217300375195)"><path d="M0 0 C0 0, 0 0, 0 0 M0 0 C0 0, 0 0, 0 0 M0.13 12.04 C5.37 6.91, 8.54 3.67, 10.63 -0.03 M0.13 12.04 C4.02 8.84, 6.5 4.39, 10.63 -0.03 M0.27 24.08 C4.34 16.29, 9.43 11.06, 21.26 -0.07 M0.27 24.08 C7.23 15.47, 14.76 6.68, 21.26 -0.07 M-0.26 36.88 C11.43 25.19, 24.25 10.49, 31.89 -0.1 M-0.26 36.88 C8.24 26.95, 17.37 17.47, 31.89 -0.1 M-0.12 48.92 C14.03 32.85, 28.11 15.21, 42.52 -0.14 M-0.12 48.92 C13.06 33.55, 25.53 18.12, 42.52 -0.14 M0.01 60.96 C14.57 41.46, 30.6 24.77, 53.15 -0.17 M0.01 60.96 C21.83 37.05, 42.98 12.65, 53.15 -0.17 M10.64 60.92 C21.24 49.09, 35.8 34.02, 63.78 -0.21 M10.64 60.92 C22.16 47.61, 33.62 35.81, 63.78 -0.21 M21.27 60.89 C36.12 46.1, 48.66 29.58, 74.41 -0.24 M21.27 60.89 C40.09 38.02, 59.65 16.68, 74.41 -0.24 M31.9 60.86 C53.22 39.78, 74.15 16.26, 85.04 -0.28 M31.9 60.86 C48.66 42.81, 64.66 23.19, 85.04 -0.28 M42.53 60.82 C62.17 39.22, 80.66 14.83, 95.67 -0.31 M42.53 60.82 C62.4 37.84, 83 14.71, 95.67 -0.31 M53.16 60.79 C69.69 39.25, 88.03 18.25, 106.3 -0.34 M53.16 60.79 C64.83 48.12, 76.23 34.59, 106.3 -0.34 M63.79 60.75 C80.58 40.93, 103.04 18.08, 116.27 0.38 M63.79 60.75 C76.25 45.82, 88.43 31.8, 116.27 0.38 M74.42 60.72 C92.28 44.39, 105.64 25.08, 126.91 0.34 M74.42 60.72 C92.16 40.95, 108.88 21.31, 126.91 0.34 M85.05 60.68 C97.14 45.85, 110.93 32.77, 137.54 0.31 M85.05 60.68 C103.42 41.43, 120.59 19.51, 137.54 0.31 M95.68 60.65 C108.74 46.44, 116.6 34.17, 148.17 0.27 M95.68 60.65 C114.86 39.06, 135.28 16.5, 148.17 0.27 M106.31 60.61 C125.63 37.27, 144.97 16.21, 158.8 0.24 M106.31 60.61 C116.91 47.74, 127.29 35.72, 158.8 0.24 M116.94 60.58 C132.07 42.28, 146.95 23.73, 169.43 0.2 M116.94 60.58 C132.03 41.93, 147.81 22.95, 169.43 0.2 M127.57 60.55 C148.25 35.47, 165.8 13.25, 180.06 0.17 M127.57 60.55 C147.25 38.65, 165.33 15.97, 180.06 0.17 M138.2 60.51 C157.85 36.4, 177.86 13.98, 190.69 0.13 M138.2 60.51 C150.21 46.22, 161.58 31.85, 190.69 0.13 M148.83 60.48 C165.95 42.87, 182.63 21.69, 200 1.61 M148.83 60.48 C163.3 41.15, 179.6 23.22, 200 1.61 M159.46 60.44 C173.47 44.21, 187.29 27.49, 199.48 14.4 M159.46 60.44 C169.67 48.51, 179.18 37.25, 199.48 14.4 M170.09 60.41 C177.1 52.16, 186.52 41.84, 199.61 26.45 M170.09 60.41 C179.46 48.85, 187.67 38.71, 199.61 26.45 M180.72 60.37 C184.85 55.77, 192.32 49.85, 199.75 38.49 M180.72 60.37 C188.07 51.53, 194.43 43.84, 199.75 38.49 M190.7 61.09 C193.86 56.75, 196.68 54.34, 199.88 50.53 M190.7 61.09 C192.04 58.38, 194.91 56.86, 199.88 50.53" stroke="#a5d8ff" stroke-width="1" fill="none"></path><path d="M0 0 C55.11 2.14, 105.6 -0.99, 199.27 0 M0 0 C52.43 -1.85, 104.83 -1.52, 199.27 0 M199.27 0 C199.05 17.76, 198.79 38.69, 199.27 60.56 M199.27 0 C198.42 17.45, 199.8 34.82, 199.27 60.56 M199.27 60.56 C134.06 60.96, 66.58 61.91, 0 60.56 M199.27 60.56 C154.22 59.75, 108.7 60.9, 0 60.56 M0 60.56 C0.25 43.84, -2.07 26.77, 0 0 M0 60.56 C-0.92 48.84, -0.59 36.6, 0 0" stroke="#1e1e1e" stroke-width="2" fill="none"></path></g><g transform="translate(314.1600697041481 135.87278589022753) rotate(0 33.679969787597656 12.5)"><text x="33.679969787597656" y="0" font-family="Virgil, Segoe UI Emoji" font-size="20px" fill="#1e1e1e" text-anchor="middle" style="white-space: pre;" direction="ltr" dominant-baseline="text-before-edge">INPUT</text></g><g stroke-linecap="round" transform="translate(176.24920798479246 93.94542318654658) rotate(0 46.905962236020315 18.29848699469926)"><path d="M0 0 C0 0, 0 0, 0 0 M0 0 C0 0, 0 0, 0 0 M0.13 12.04 C3.61 8.38, 7.27 3.98, 10.63 -0.03 M0.13 12.04 C3.14 9.77, 5.14 6.65, 10.63 -0.03 M0.27 24.08 C8.13 17.99, 12.59 8.13, 21.26 -0.07 M0.27 24.08 C6.79 15.65, 14.46 8.38, 21.26 -0.07 M-0.26 36.88 C11.76 23.47, 23.75 10, 31.89 -0.1 M-0.26 36.88 C11.58 23.03, 23.82 9.09, 31.89 -0.1 M9.72 37.6 C21.39 22.9, 35.61 9.78, 42.52 -0.14 M9.72 37.6 C20.12 25.37, 31.24 11.43, 42.52 -0.14 M20.35 37.56 C30.09 25.66, 41.97 15.86, 53.15 -0.17 M20.35 37.56 C33.12 22.14, 46.49 8.16, 53.15 -0.17 M30.98 37.53 C41.47 28.24, 49.76 17.54, 63.78 -0.21 M30.98 37.53 C42.16 25.74, 52.92 12.81, 63.78 -0.21 M41.61 37.49 C55.32 22.4, 64.49 8.75, 74.41 -0.24 M41.61 37.49 C47.89 30.18, 54.82 23.08, 74.41 -0.24 M52.24 37.46 C61.31 27.26, 66.25 20.57, 85.04 -0.28 M52.24 37.46 C65.83 22.49, 77.83 7.88, 85.04 -0.28 M62.87 37.43 C68.98 27.51, 80.1 20.88, 93.7 1.95 M62.87 37.43 C70.68 28.13, 79.69 18.48, 93.7 1.95 M73.5 37.39 C80.53 27.46, 88.97 18.4, 93.84 13.99 M73.5 37.39 C80.44 27.95, 88.87 20.76, 93.84 13.99 M84.13 37.36 C85.53 35.64, 90.24 30.98, 93.97 26.04 M84.13 37.36 C86.44 34.76, 88.19 33.08, 93.97 26.04" stroke="#b2f2bb" stroke-width="1" fill="none"></path><path d="M0 0 C26.64 1.74, 50.53 0.76, 93.81 0 M0 0 C21 1.34, 41.01 1.5, 93.81 0 M93.81 0 C92.8 10.12, 94.83 18.17, 93.81 36.6 M93.81 0 C93.96 9.82, 93.18 20.66, 93.81 36.6 M93.81 36.6 C75.55 35.94, 54.88 38.93, 0 36.6 M93.81 36.6 C72 36.19, 49.11 37.02, 0 36.6 M0 36.6 C-0.77 20.74, 1.17 6.92, 0 0 M0 36.6 C0.95 28.78, -0.67 20.05, 0 0" stroke="#1e1e1e" stroke-width="2" fill="none"></path></g><g transform="translate(197.1751973814573 99.74391018124606) rotate(0 25.97997283935547 12.5)"><text x="25.97997283935547" y="0" font-family="Virgil, Segoe UI Emoji" font-size="20px" fill="#1e1e1e" text-anchor="middle" style="white-space: pre;" direction="ltr" dominant-baseline="text-before-edge">Filter</text></g><g stroke-linecap="round" transform="translate(741.4055458886792 134.24693626909948) rotate(0 98.4358000064189 27.286231387276075)"><path d="M0 0 C0 0, 0 0, 0 0 M0 0 C0 0, 0 0, 0 0 M0.13 12.04 C4.69 8.13, 8.01 1.81, 10.63 -0.03 M0.13 12.04 C4.06 7.7, 8.57 2.98, 10.63 -0.03 M0.27 24.08 C5.82 15.36, 12.9 7.3, 21.26 -0.07 M0.27 24.08 C4.7 19.59, 9.04 14.19, 21.26 -0.07 M-0.26 36.88 C9.35 25.42, 24.47 11.01, 31.89 -0.1 M-0.26 36.88 C7.46 27.57, 14.66 19.27, 31.89 -0.1 M-0.12 48.92 C14.69 35.95, 25.09 20.04, 42.52 -0.14 M-0.12 48.92 C14.46 32.77, 28.03 16.75, 42.52 -0.14 M5.26 54.92 C16.26 41.28, 29 29.41, 53.15 -0.17 M5.26 54.92 C22.04 37.43, 37.64 17.3, 53.15 -0.17 M15.89 54.89 C27.94 41.83, 34.82 30.68, 63.78 -0.21 M15.89 54.89 C33.39 35.24, 52.11 14.64, 63.78 -0.21 M26.52 54.85 C44.14 33.47, 61.82 14.32, 74.41 -0.24 M26.52 54.85 C36.2 43.1, 45.65 32.16, 74.41 -0.24 M37.15 54.82 C50.96 38.09, 64.48 21.1, 85.04 -0.28 M37.15 54.82 C50.86 37.78, 65.24 20.42, 85.04 -0.28 M47.78 54.78 C66.74 31.77, 82.53 11.56, 95.67 -0.31 M47.78 54.78 C65.82 34.83, 82.24 14.05, 95.67 -0.31 M58.41 54.75 C76.28 32.71, 94.5 12.33, 106.3 -0.34 M58.41 54.75 C69.35 41.73, 79.65 28.6, 106.3 -0.34 M69.04 54.71 C84.84 38.58, 100.22 18.93, 116.27 0.38 M69.04 54.71 C82.34 36.8, 97.43 20.26, 116.27 0.38 M79.67 54.68 C96.2 35.59, 112.5 16.01, 126.91 0.34 M79.67 54.68 C91.64 40.72, 102.87 27.48, 126.91 0.34 M90.3 54.65 C102.57 40.63, 117.17 24.36, 137.54 0.31 M90.3 54.65 C105.21 36.63, 118.95 20.12, 137.54 0.31 M100.93 54.61 C112.41 41.84, 127 27.73, 148.17 0.27 M100.93 54.61 C118.7 33.25, 135.82 13.2, 148.17 0.27 M111.56 54.58 C128.12 34.42, 144.17 17.14, 158.8 0.24 M111.56 54.58 C120.96 41.85, 132.71 30.89, 158.8 0.24 M122.19 54.54 C133.52 43.5, 141.76 31.62, 169.43 0.2 M122.19 54.54 C136.44 38.24, 149.79 21.86, 169.43 0.2 M132.82 54.51 C144.92 42.86, 153.8 29, 180.06 0.17 M132.82 54.51 C144.35 40.26, 156.8 25.47, 180.06 0.17 M143.45 54.47 C162.24 32.29, 180.14 13.8, 190.69 0.13 M143.45 54.47 C161.42 34.17, 179.57 12.84, 190.69 0.13 M154.08 54.44 C167.36 40.79, 177.92 23.02, 197.38 4.63 M154.08 54.44 C163.27 43.51, 173.48 32.71, 197.38 4.63 M164.71 54.4 C176.43 42.72, 185.01 31.56, 197.51 16.67 M164.71 54.4 C171.97 46.32, 181.25 37.14, 197.51 16.67 M175.34 54.37 C180.36 45.8, 188.79 39.67, 196.99 29.46 M175.34 54.37 C182.52 47.65, 187.85 39.85, 196.99 29.46 M185.97 54.33 C189.5 49.74, 194.16 44.69, 197.12 41.5 M185.97 54.33 C188.15 51.49, 191.16 48.31, 197.12 41.5 M195.94 55.06 C196.31 54.8, 196.69 54.22, 197.26 53.55 M195.94 55.06 C196.49 54.43, 196.92 53.96, 197.26 53.55" stroke="#a5d8ff" stroke-width="1" fill="none"></path><path d="M0 0 C68.42 -0.35, 135.84 -1.14, 196.87 0 M0 0 C66.82 -1.29, 132.58 -1.89, 196.87 0 M196.87 0 C197.89 13.19, 195.23 27.4, 196.87 54.57 M196.87 0 C196.86 15.37, 197.29 30.22, 196.87 54.57 M196.87 54.57 C146.75 52.4, 96.82 55.2, 0 54.57 M196.87 54.57 C133.35 55.07, 70.02 55.4, 0 54.57 M0 54.57 C-0.45 38.33, 0.56 19.94, 0 0 M0 54.57 C0.24 40.27, -1.12 27.13, 0 0" stroke="#1e1e1e" stroke-width="2" fill="none"></path></g><g transform="translate(795.6113883145317 149.03316765637555) rotate(0 44.229957580566406 12.5)"><text x="44.229957580566406" y="0" font-family="Virgil, Segoe UI Emoji" font-size="20px" fill="#1e1e1e" text-anchor="middle" style="white-space: pre;" direction="ltr" dominant-baseline="text-before-edge">OUTPUT</text></g><g stroke-linecap="round" transform="translate(487.8818054911867 10) rotate(0 106.82435205285773 32.678902159877225)"><path d="M0 0 C0 0, 0 0, 0 0 M0 0 C0 0, 0 0, 0 0 M0.13 12.04 C1.24 9.39, 3.98 7.67, 10.63 -0.03 M0.13 12.04 C5 7.65, 8.58 2.17, 10.63 -0.03 M0.27 24.08 C5.21 18.78, 10.27 11.43, 21.26 -0.07 M0.27 24.08 C6.1 18.01, 10.28 11, 21.26 -0.07 M-0.26 36.88 C9.62 26.05, 20.92 14.58, 31.89 -0.1 M-0.26 36.88 C7.91 28.67, 15.3 19.57, 31.89 -0.1 M-0.12 48.92 C15.27 30.91, 30.33 16.59, 42.52 -0.14 M-0.12 48.92 C10.54 38.51, 19 26.96, 42.52 -0.14 M0.01 60.96 C13.89 44.28, 27.52 28.27, 53.15 -0.17 M0.01 60.96 C17.03 40.18, 33.59 21.73, 53.15 -0.17 M6.7 65.45 C25.77 46.1, 41.81 27.47, 63.78 -0.21 M6.7 65.45 C20.85 49.95, 33.25 35.54, 63.78 -0.21 M17.33 65.42 C34.18 47.04, 50.75 28.51, 74.41 -0.24 M17.33 65.42 C36.22 44.39, 53.98 23.96, 74.41 -0.24 M27.96 65.38 C50.9 38.37, 71.32 12.11, 85.04 -0.28 M27.96 65.38 C46.68 44.62, 66.51 22.76, 85.04 -0.28 M38.59 65.35 C54.66 45.92, 72.17 25.65, 95.67 -0.31 M38.59 65.35 C55.95 45.83, 72.49 26.53, 95.67 -0.31 M49.22 65.31 C70.88 43.49, 89.71 21.41, 106.3 -0.34 M49.22 65.31 C69.13 41.15, 90.6 17.46, 106.3 -0.34 M59.85 65.28 C73.85 48.62, 84.97 33.24, 116.27 0.38 M59.85 65.28 C73.69 49.15, 87.76 32.59, 116.27 0.38 M70.48 65.25 C85.81 45.76, 102.82 28.79, 126.91 0.34 M70.48 65.25 C88.37 45.12, 106.85 24, 126.91 0.34 M81.11 65.21 C94.11 51.34, 106.49 35.21, 137.54 0.31 M81.11 65.21 C93.42 52.91, 104.84 39.6, 137.54 0.31 M91.74 65.18 C110.6 43.02, 133.27 18.99, 148.17 0.27 M91.74 65.18 C103.85 50.29, 115.18 37.74, 148.17 0.27 M102.37 65.14 C117.81 47.85, 131.55 29.12, 158.8 0.24 M102.37 65.14 C119.35 45.69, 136.27 26.36, 158.8 0.24 M113 65.11 C134.13 39.16, 155.8 15.86, 169.43 0.2 M113 65.11 C133.62 40.46, 156.54 16.56, 169.43 0.2 M123.63 65.07 C141.75 43.03, 163.07 21.77, 180.06 0.17 M123.63 65.07 C140.44 46.44, 157.62 25.41, 180.06 0.17 M133.61 65.79 C152.01 46.33, 173.05 24.43, 190.69 0.13 M133.61 65.79 C154.33 41.4, 176.38 17.37, 190.69 0.13 M144.24 65.76 C160.16 47.68, 175.66 29.06, 201.32 0.1 M144.24 65.76 C163.91 43.94, 182 22.52, 201.32 0.1 M154.87 65.72 C171.59 48.81, 184.1 33.03, 211.95 0.06 M154.87 65.72 C169.79 47.52, 187.01 29.21, 211.95 0.06 M165.5 65.69 C179.21 51.19, 192.94 33.25, 214.05 9.84 M165.5 65.69 C178.71 50.94, 190.68 35.47, 214.05 9.84 M176.13 65.66 C185.14 54.1, 194.92 47.54, 214.18 21.88 M176.13 65.66 C191.04 48.58, 207.2 30.8, 214.18 21.88 M186.76 65.62 C194.46 56.64, 200.53 48.58, 214.31 33.92 M186.76 65.62 C192.65 59.35, 197.48 53.36, 214.31 33.92 M197.39 65.59 C202.9 60.22, 207.26 53.65, 214.45 45.96 M197.39 65.59 C204.67 57.46, 210.3 50.08, 214.45 45.96 M208.02 65.55 C209.48 62.95, 212.48 61.03, 213.92 58.76 M208.02 65.55 C210.09 62.8, 212.89 60.17, 213.92 58.76" stroke="#ffc9c9" stroke-width="1" fill="none"></path><path d="M0 0 C61.04 2.32, 120.96 2.26, 213.65 0 M0 0 C48.62 0.94, 96.78 1.45, 213.65 0 M213.65 0 C215.43 21.1, 214.79 42.04, 213.65 65.36 M213.65 0 C212.63 18.41, 214.26 36.25, 213.65 65.36 M213.65 65.36 C143.42 65.54, 70.55 65.48, 0 65.36 M213.65 65.36 C132.12 66.14, 51.01 64.8, 0 65.36 M0 65.36 C1 51.18, 0.05 38.75, 0 0 M0 65.36 C-0.63 46.65, 0.55 29.19, 0 0" stroke="#1e1e1e" stroke-width="2" fill="none"></path></g><g transform="translate(534.7062033204116 30.178902159877453) rotate(0 59.99995422363284 12.5)"><text x="59.99995422363281" y="0" font-family="Virgil, Segoe UI Emoji" font-size="20px" fill="#1e1e1e" text-anchor="middle" style="white-space: pre;" direction="ltr" dominant-baseline="text-before-edge">系统进程服务</text></g><g stroke-linecap="round" transform="translate(489.2431379810937 281.8990407719757) rotate(0 107.0978597765654 25.392422445913326)"><path d="M0 0 C0 0, 0 0, 0 0 M0 0 C0 0, 0 0, 0 0 M0.13 12.04 C3.29 9.24, 8.64 2.91, 10.63 -0.03 M0.13 12.04 C4.48 8.09, 7.07 4.04, 10.63 -0.03 M0.27 24.08 C6.73 19.23, 8.17 12.92, 21.26 -0.07 M0.27 24.08 C6.98 17.32, 13.87 9.06, 21.26 -0.07 M-0.26 36.88 C10.08 24.52, 21.68 9.58, 31.89 -0.1 M-0.26 36.88 C9.98 25.7, 20.04 14.37, 31.89 -0.1 M-0.12 48.92 C11.01 35.28, 24.71 19.28, 42.52 -0.14 M-0.12 48.92 C16.29 29.56, 32.69 9.02, 42.52 -0.14 M5.26 54.92 C16.3 41.57, 29.63 30.41, 53.15 -0.17 M5.26 54.92 C23.32 34.34, 40.42 14.49, 53.15 -0.17 M15.89 54.89 C28.98 38.48, 44.56 20.54, 63.78 -0.21 M15.89 54.89 C28.83 40.1, 43.44 23.81, 63.78 -0.21 M26.52 54.85 C45.29 33.59, 60.41 15.83, 74.41 -0.24 M26.52 54.85 C40.15 40.62, 51.51 25.07, 74.41 -0.24 M37.15 54.82 C48.85 39.43, 63.02 24.09, 85.04 -0.28 M37.15 54.82 C54.72 35, 70.7 16.06, 85.04 -0.28 M47.12 55.54 C61.73 37.12, 79.51 19.58, 95.67 -0.31 M47.12 55.54 C65.42 35.58, 82.92 15.24, 95.67 -0.31 M57.75 55.5 C74.73 36.49, 94.25 16.45, 106.3 -0.34 M57.75 55.5 C73.14 36.29, 90.07 18.94, 106.3 -0.34 M68.38 55.47 C86.97 36.47, 100.53 16.22, 116.27 0.38 M68.38 55.47 C85.14 35.25, 103.5 14.29, 116.27 0.38 M79.01 55.43 C90.46 42.74, 102.15 29.4, 126.91 0.34 M79.01 55.43 C93.89 37.49, 108.81 19.85, 126.91 0.34 M89.64 55.4 C101.11 38.93, 115.15 26.45, 137.54 0.31 M89.64 55.4 C108.86 33.36, 126.98 12.96, 137.54 0.31 M100.27 55.37 C116.68 35.69, 136.35 16.03, 148.17 0.27 M100.27 55.37 C110.3 43.06, 122.23 32.02, 148.17 0.27 M110.9 55.33 C128.48 32.79, 146.78 13.57, 158.8 0.24 M110.9 55.33 C126.26 39.33, 139.53 23.14, 158.8 0.24 M121.53 55.3 C132.51 45.32, 141.27 32.74, 169.43 0.2 M121.53 55.3 C135.61 41, 148.61 24.55, 169.43 0.2 M132.16 55.26 C150.41 33.38, 168.49 15.33, 180.06 0.17 M132.16 55.26 C149.13 36.5, 165.63 17.72, 180.06 0.17 M142.79 55.23 C159.09 39.32, 172.76 20.89, 190.69 0.13 M142.79 55.23 C159.01 37.31, 174.07 19.7, 190.69 0.13 M153.42 55.19 C171.12 34.73, 188.63 16.78, 201.32 0.1 M153.42 55.19 C169.23 36.53, 185.35 17.32, 201.32 0.1 M164.05 55.16 C183.02 36.33, 198.94 15.47, 211.95 0.06 M164.05 55.16 C182.18 34.21, 201.6 12.33, 211.95 0.06 M174.68 55.12 C188.45 41.25, 199.77 24.1, 219.3 3.8 M174.68 55.12 C186.8 40.25, 198.76 27.12, 219.3 3.8 M185.31 55.09 C195.48 41.55, 206.49 31.22, 218.77 16.6 M185.31 55.09 C192.82 46.27, 202.02 35.95, 218.77 16.6 M195.94 55.06 C203.38 46.64, 211.53 37.99, 218.91 28.64 M195.94 55.06 C203.67 45.56, 211.01 37.31, 218.91 28.64 M206.57 55.02 C210.96 52.49, 213.59 49.14, 219.04 40.68 M206.57 55.02 C209 51.16, 211.6 49.1, 219.04 40.68" stroke="#b2f2bb" stroke-width="1" fill="none"></path><path d="M0 0 C63.46 -1.14, 128.43 0.93, 214.2 0 M0 0 C73.21 -0.82, 147.65 -1.62, 214.2 0 M214.2 0 C215.52 10.96, 214.44 22.57, 214.2 50.78 M214.2 0 C213.47 15.46, 213.07 31.79, 214.2 50.78 M214.2 50.78 C159.26 53.93, 105.16 53.45, 0 50.78 M214.2 50.78 C143.5 50.16, 72.33 50, 0 50.78 M0 50.78 C1.25 34.33, 1.04 21.21, 0 0 M0 50.78 C0.98 39.61, 0.16 30.41, 0 0" stroke="#1e1e1e" stroke-width="2" fill="none"></path></g><g transform="translate(547.9610386512138 294.79146321788903) rotate(0 48.37995910644531 12.5)"><text x="48.37995910644531" y="0" font-family="Virgil, Segoe UI Emoji" font-size="20px" fill="#1e1e1e" text-anchor="middle" style="white-space: pre;" direction="ltr" dominant-baseline="text-before-edge">FORWARD</text></g><g stroke-linecap="round" transform="translate(486.9504296069995 248.9092191625973) rotate(0 46.905962236020315 18.29848699469926)"><path d="M0 0 C0 0, 0 0, 0 0 M0 0 C0 0, 0 0, 0 0 M0.13 12.04 C2.18 7.68, 5.45 4.44, 10.63 -0.03 M0.13 12.04 C3.68 7.44, 7.56 4.07, 10.63 -0.03 M0.27 24.08 C8.38 17.62, 13.55 7.69, 21.26 -0.07 M0.27 24.08 C4.95 18.46, 9.6 13.43, 21.26 -0.07 M-0.26 36.88 C10.7 23.34, 23.21 11.56, 31.89 -0.1 M-0.26 36.88 C7.46 29.02, 15.38 18.84, 31.89 -0.1 M9.72 37.6 C20.19 29.31, 25 19.18, 42.52 -0.14 M9.72 37.6 C21.27 23.48, 33.43 8.27, 42.52 -0.14 M20.35 37.56 C32.29 26.41, 38.65 15.61, 53.15 -0.17 M20.35 37.56 C29.18 26.83, 39.78 16.59, 53.15 -0.17 M30.98 37.53 C41.08 24.41, 54.12 7.84, 63.78 -0.21 M30.98 37.53 C38.01 28.56, 46.5 18.38, 63.78 -0.21 M41.61 37.49 C52.01 26.09, 61.55 11.05, 74.41 -0.24 M41.61 37.49 C51.92 26.11, 62.93 13.37, 74.41 -0.24 M52.24 37.46 C61.83 27.1, 71.64 14.82, 85.04 -0.28 M52.24 37.46 C61.07 26.33, 68.81 17.71, 85.04 -0.28 M62.87 37.43 C75.82 24.16, 84.66 9.37, 93.7 1.95 M62.87 37.43 C74.82 24.36, 85.4 11.2, 93.7 1.95 M73.5 37.39 C79.48 33.01, 85.62 24.66, 93.84 13.99 M73.5 37.39 C79.39 30.2, 84.9 25.45, 93.84 13.99 M84.13 37.36 C89.01 32.42, 91.56 29.35, 93.97 26.04 M84.13 37.36 C85.87 34.16, 88.33 32.56, 93.97 26.04" stroke="#b2f2bb" stroke-width="1" fill="none"></path><path d="M0 0 C35.18 1.15, 70.83 -0.65, 93.81 0 M0 0 C36.02 0.58, 70.55 0.15, 93.81 0 M93.81 0 C91.96 7.95, 92.09 17.61, 93.81 36.6 M93.81 0 C93.21 11.36, 93.35 23.9, 93.81 36.6 M93.81 36.6 C56.14 37.36, 21.65 37.27, 0 36.6 M93.81 36.6 C61.63 36.47, 28.94 36.31, 0 36.6 M0 36.6 C-0.45 24.23, -0.66 9.57, 0 0 M0 36.6 C-0.04 26.57, 1.17 15.47, 0 0" stroke="#1e1e1e" stroke-width="2" fill="none"></path></g><g transform="translate(507.8764190036643 254.7077061572968) rotate(0 25.97997283935547 12.5)"><text x="25.97997283935547" y="0" font-family="Virgil, Segoe UI Emoji" font-size="20px" fill="#1e1e1e" text-anchor="middle" style="white-space: pre;" direction="ltr" dominant-baseline="text-before-edge">Filter</text></g><g stroke-linecap="round" transform="translate(922.4375413612522 79.46002933469254) rotate(0 46.90596223602029 18.29848699469926)"><path d="M0 0 C0 0, 0 0, 0 0 M0 0 C0 0, 0 0, 0 0 M0.13 12.04 C5.69 6.54, 6.5 3.96, 10.63 -0.03 M0.13 12.04 C3.25 9.58, 4.91 6.74, 10.63 -0.03 M0.27 24.08 C6.88 15.95, 14.5 10.33, 21.26 -0.07 M0.27 24.08 C6.24 16.64, 11.99 10.98, 21.26 -0.07 M-0.26 36.88 C9.97 25.33, 16.39 18.25, 31.89 -0.1 M-0.26 36.88 C6.13 29.41, 12.94 20.88, 31.89 -0.1 M5.78 42.13 C13.07 31.92, 22.21 25.54, 42.52 -0.14 M5.78 42.13 C16.43 29.07, 27.85 15.57, 42.52 -0.14 M16.41 42.09 C24.59 32, 34.75 17.63, 53.15 -0.17 M16.41 42.09 C28.23 28.54, 38.64 16.25, 53.15 -0.17 M27.04 42.06 C33.95 31.48, 44.02 21.54, 63.78 -0.21 M27.04 42.06 C36.98 30.15, 46.31 18.88, 63.78 -0.21 M37.67 42.02 C48.51 33.05, 54.39 22.4, 74.41 -0.24 M37.67 42.02 C45.65 32.15, 52.99 24.17, 74.41 -0.24 M48.3 41.99 C58.17 30.4, 66.75 23.96, 85.04 -0.28 M48.3 41.99 C57.64 32.41, 65.54 21.88, 85.04 -0.28 M58.93 41.95 C68.4 33.84, 75.99 23.36, 95.01 0.44 M58.93 41.95 C66.44 34.13, 73.72 25.22, 95.01 0.44 M69.56 41.92 C78.26 33.86, 84.64 24.33, 94.49 13.24 M69.56 41.92 C75.41 34.46, 82.65 27.25, 94.49 13.24 M80.19 41.88 C85.17 36.41, 90.92 28.67, 94.62 25.28 M80.19 41.88 C86.05 36.96, 89.58 31.38, 94.62 25.28" stroke="#b2f2bb" stroke-width="1" fill="none"></path><path d="M0 0 C31.04 -0.44, 62.23 -1.28, 93.81 0 M0 0 C26.36 0.82, 51.9 1.33, 93.81 0 M93.81 0 C93.3 12.28, 92.43 27.92, 93.81 36.6 M93.81 0 C94.41 9.1, 93.72 17.78, 93.81 36.6 M93.81 36.6 C75.59 35.79, 55.18 37.77, 0 36.6 M93.81 36.6 C63.69 36.88, 35.22 35.9, 0 36.6 M0 36.6 C-1.29 24.15, -1.6 6.89, 0 0 M0 36.6 C0.23 25.55, 1.11 12.69, 0 0" stroke="#1e1e1e" stroke-width="2" fill="none"></path></g><g transform="translate(943.363530757917 85.25851632939202) rotate(0 25.97997283935547 12.5)"><text x="25.97997283935547" y="0" font-family="Virgil, Segoe UI Emoji" font-size="20px" fill="#1e1e1e" text-anchor="middle" style="white-space: pre;" direction="ltr" dominant-baseline="text-before-edge">Filter</text></g><g stroke-linecap="round" transform="translate(10 247.35137337101423) rotate(0 46.90596223602031 18.29848699469926)"><path d="M0 0 C0 0, 0 0, 0 0 M0 0 C0 0, 0 0, 0 0 M0.13 12.04 C1.77 8.55, 4.19 7.51, 10.63 -0.03 M0.13 12.04 C3.43 7.66, 6.43 4.06, 10.63 -0.03 M0.27 24.08 C9.05 18.09, 13.5 10.52, 21.26 -0.07 M0.27 24.08 C5.46 17.93, 10.13 11.82, 21.26 -0.07 M-0.26 36.88 C8.97 22.33, 24.01 9.76, 31.89 -0.1 M-0.26 36.88 C11.79 23.51, 22.67 9.48, 31.89 -0.1 M9.72 37.6 C19.74 28.59, 26.43 17.21, 42.52 -0.14 M9.72 37.6 C19.02 26.81, 28.99 15.36, 42.52 -0.14 M20.35 37.56 C31.86 25.27, 44.9 9.06, 53.15 -0.17 M20.35 37.56 C28.96 28.36, 36.81 18.92, 53.15 -0.17 M30.98 37.53 C43.59 22.51, 54.94 11.08, 63.78 -0.21 M30.98 37.53 C41.63 26.02, 51.81 14.18, 63.78 -0.21 M41.61 37.49 C50.51 26.97, 62.82 14.63, 74.41 -0.24 M41.61 37.49 C50.66 28.27, 59.75 16.83, 74.41 -0.24 M52.24 37.46 C60.07 28.94, 68.03 16.95, 85.04 -0.28 M52.24 37.46 C59.97 27.84, 68.7 19.07, 85.04 -0.28 M62.87 37.43 C67.73 28.72, 74.88 21.38, 93.7 1.95 M62.87 37.43 C73.19 25.35, 84.31 13.19, 93.7 1.95 M73.5 37.39 C80.95 29.69, 87.69 17.08, 93.84 13.99 M73.5 37.39 C81.36 28.6, 90.52 17.86, 93.84 13.99 M84.13 37.36 C85.69 33, 90.04 31.63, 93.97 26.04 M84.13 37.36 C86.26 34.92, 89.38 31.78, 93.97 26.04" stroke="#ffec99" stroke-width="1" fill="none"></path><path d="M0 0 C19.54 2.27, 41.5 1.24, 93.81 0 M0 0 C19.95 -0.47, 38.5 -0.07, 93.81 0 M93.81 0 C94.92 13.32, 93.01 25.04, 93.81 36.6 M93.81 0 C93.82 10.32, 92.88 21, 93.81 36.6 M93.81 36.6 C67.17 38.43, 35.2 38.32, 0 36.6 M93.81 36.6 C75.43 36.45, 57.04 36.23, 0 36.6 M0 36.6 C-1.81 22.89, 1.4 9.07, 0 0 M0 36.6 C-0.85 29.82, 0.66 20.95, 0 0" stroke="#1e1e1e" stroke-width="2" fill="none"></path></g><g transform="translate(35.865976579282034 253.14986036571327) rotate(0 21.03998565673828 12.5)"><text x="21.03998565673828" y="0" font-family="Virgil, Segoe UI Emoji" font-size="20px" fill="#1e1e1e" text-anchor="middle" style="white-space: pre;" direction="ltr" dominant-baseline="text-before-edge">NAT</text></g><g stroke-linecap="round" transform="translate(950.9586907303105 252.3845126445617) rotate(0 46.90596223602029 18.29848699469926)"><path d="M0 0 C0 0, 0 0, 0 0 M0 0 C0 0, 0 0, 0 0 M0.13 12.04 C2.68 9.62, 3.97 7.51, 10.63 -0.03 M0.13 12.04 C2.16 9.01, 6.02 6.04, 10.63 -0.03 M0.27 24.08 C8.36 17.84, 14.11 6.16, 21.26 -0.07 M0.27 24.08 C7.19 15.14, 15.46 7.15, 21.26 -0.07 M-0.26 36.88 C13.71 22.13, 24.27 6.09, 31.89 -0.1 M-0.26 36.88 C9.58 24.71, 21.37 12.81, 31.89 -0.1 M5.78 42.13 C13.32 31.89, 25.3 21.32, 42.52 -0.14 M5.78 42.13 C18.2 27.49, 30.37 13.48, 42.52 -0.14 M16.41 42.09 C26.01 30.96, 34.67 22.65, 53.15 -0.17 M16.41 42.09 C26.23 30.08, 36.72 19.65, 53.15 -0.17 M27.04 42.06 C35.85 31.48, 44.58 22.23, 63.78 -0.21 M27.04 42.06 C38.14 30.13, 47.79 16.9, 63.78 -0.21 M37.67 42.02 C45.85 31.82, 55.64 20.1, 74.41 -0.24 M37.67 42.02 C47.2 31.75, 54.15 23.4, 74.41 -0.24 M48.3 41.99 C62.57 26.7, 73.97 14.75, 85.04 -0.28 M48.3 41.99 C60.73 28.21, 73.49 12.85, 85.04 -0.28 M58.93 41.95 C66.9 32.71, 76.75 23.4, 95.01 0.44 M58.93 41.95 C72.42 25.97, 85.83 11.02, 95.01 0.44 M69.56 41.92 C79.45 33.62, 85.28 22.85, 94.49 13.24 M69.56 41.92 C75.43 33.62, 82.57 27.32, 94.49 13.24 M80.19 41.88 C85.49 38.63, 88.01 31.91, 94.62 25.28 M80.19 41.88 C84.64 37.06, 88.41 32.1, 94.62 25.28" stroke="#ffec99" stroke-width="1" fill="none"></path><path d="M0 0 C24.88 -1.32, 48.25 1.55, 93.81 0 M0 0 C22.89 -1.22, 47.01 -0.35, 93.81 0 M93.81 0 C95.65 13.48, 92.63 27.76, 93.81 36.6 M93.81 0 C93.88 12.47, 92.87 25.83, 93.81 36.6 M93.81 36.6 C65.06 34.95, 39.04 35.33, 0 36.6 M93.81 36.6 C74.68 37.06, 55.26 36.79, 0 36.6 M0 36.6 C0.97 23.92, 0.67 9.6, 0 0 M0 36.6 C-0.02 21.78, -0.65 9.04, 0 0" stroke="#1e1e1e" stroke-width="2" fill="none"></path></g><g transform="translate(976.8246673095925 258.18299963926074) rotate(0 21.03998565673828 12.5)"><text x="21.03998565673828" y="0" font-family="Virgil, Segoe UI Emoji" font-size="20px" fill="#1e1e1e" text-anchor="middle" style="white-space: pre;" direction="ltr" dominant-baseline="text-before-edge">NAT</text></g><g stroke-linecap="round" transform="translate(923.7557464199638 119.36568242377189) rotate(0 46.90596223602029 18.29848699469926)"><path d="M0 0 C0 0, 0 0, 0 0 M0 0 C0 0, 0 0, 0 0 M0.13 12.04 C3.32 6.74, 6.02 5.92, 10.63 -0.03 M0.13 12.04 C3.58 7.64, 7.42 4.44, 10.63 -0.03 M0.27 24.08 C6.96 17.36, 15.13 9.83, 21.26 -0.07 M0.27 24.08 C4.65 17.7, 10 12.05, 21.26 -0.07 M-0.26 36.88 C10.56 23.21, 21.29 11.78, 31.89 -0.1 M-0.26 36.88 C8.84 26.26, 17.69 16.05, 31.89 -0.1 M9.72 37.6 C18.7 25.76, 26.52 18.17, 42.52 -0.14 M9.72 37.6 C19.57 25.73, 28.58 15.15, 42.52 -0.14 M20.35 37.56 C27.74 28.12, 35.04 19.35, 53.15 -0.17 M20.35 37.56 C32 23.97, 43.71 10.29, 53.15 -0.17 M30.98 37.53 C35.8 28.21, 42.73 20.3, 63.78 -0.21 M30.98 37.53 C37.09 31.04, 45.08 21.55, 63.78 -0.21 M41.61 37.49 C51.94 27.41, 59.72 17.17, 74.41 -0.24 M41.61 37.49 C53.17 23.94, 62.73 11.51, 74.41 -0.24 M52.24 37.46 C63.11 27.93, 71.65 19.06, 85.04 -0.28 M52.24 37.46 C65.13 24.37, 76.01 9.01, 85.04 -0.28 M62.87 37.43 C68.65 29.05, 78.93 20.33, 93.7 1.95 M62.87 37.43 C68.52 30.25, 77 21.78, 93.7 1.95 M73.5 37.39 C76.77 30.68, 85.01 26.23, 93.84 13.99 M73.5 37.39 C80.79 29.6, 88.63 20.07, 93.84 13.99 M84.13 37.36 C86.21 32.55, 90.81 29.76, 93.97 26.04 M84.13 37.36 C87.55 32.83, 90.24 29.97, 93.97 26.04" stroke="#ffec99" stroke-width="1" fill="none"></path><path d="M0 0 C24.68 1.17, 54.63 0.22, 93.81 0 M0 0 C29.38 1.26, 58.14 -0.28, 93.81 0 M93.81 0 C94.84 9.62, 93.14 20.03, 93.81 36.6 M93.81 0 C93 10.61, 94.42 21.77, 93.81 36.6 M93.81 36.6 C69.65 38.29, 40.33 37.73, 0 36.6 M93.81 36.6 C63.38 38.13, 34.69 36.95, 0 36.6 M0 36.6 C-0.17 26.25, 0.72 12.15, 0 0 M0 36.6 C0.71 23.5, 1.3 11.14, 0 0" stroke="#1e1e1e" stroke-width="2" fill="none"></path></g><g transform="translate(949.6217229992458 125.16416941847137) rotate(0 21.03998565673828 12.5)"><text x="21.03998565673828" y="0" font-family="Virgil, Segoe UI Emoji" font-size="20px" fill="#1e1e1e" text-anchor="middle" style="white-space: pre;" direction="ltr" dominant-baseline="text-before-edge">NAT</text></g><g stroke-linecap="round"><g transform="translate(231.98747362650465 299.4438299696176) rotate(0 126.42782504144532 0.5991822890314324)"><path d="M0 0 C73.78 -0.12, 147.21 -0.21, 252.86 1.2 M0 0 C77.89 -0.84, 156.46 0.19, 252.86 1.2" stroke="#1e1e1e" stroke-width="2" fill="none"></path></g><g transform="translate(231.98747362650465 299.4438299696176) rotate(0 126.42782504144532 0.5991822890314324)"><path d="M229.28 9.5 C236.69 6.21, 243.71 3.26, 252.86 1.2 M229.28 9.5 C236.47 6.61, 244.48 4.85, 252.86 1.2" stroke="#1e1e1e" stroke-width="2" fill="none"></path></g><g transform="translate(231.98747362650465 299.4438299696176) rotate(0 126.42782504144532 0.5991822890314324)"><path d="M229.45 -7.6 C236.85 -5.93, 243.82 -3.93, 252.86 1.2 M229.45 -7.6 C236.53 -5.22, 244.48 -1.7, 252.86 1.2" stroke="#1e1e1e" stroke-width="2" fill="none"></path></g></g><mask></mask><g stroke-linecap="round"><g transform="translate(347.03083517635446 297.0471008134923) rotate(0 0.5704120593864843 -57.52168077492479)"><path d="M0 0 C-1.3 -32.52, -1.41 -59.99, 1.14 -115.04 M0 0 C0.82 -35.38, 0.98 -68.98, 1.14 -115.04" stroke="#1e1e1e" stroke-width="2" fill="none"></path></g><g transform="translate(347.03083517635446 297.0471008134923) rotate(0 0.5704120593864843 -57.52168077492479)"><path d="M9.59 -91.51 C6.07 -99.54, 3.39 -102.48, 1.14 -115.04 M9.59 -91.51 C6.98 -99.15, 4.23 -105.02, 1.14 -115.04" stroke="#1e1e1e" stroke-width="2" fill="none"></path></g><g transform="translate(347.03083517635446 297.0471008134923) rotate(0 0.5704120593864843 -57.52168077492479)"><path d="M-7.51 -91.59 C-6.45 -99.54, -4.55 -102.47, 1.14 -115.04 M-7.51 -91.59 C-4.94 -99.23, -2.51 -105.08, 1.14 -115.04" stroke="#1e1e1e" stroke-width="2" fill="none"></path></g></g><mask></mask><g stroke-linecap="round"><g transform="translate(344.6341060202292 112.49835236545141) rotate(0 68.306982091702 -37.14940249100755)"><path d="M0 0 C-1.28 -16.2, -1.11 -32.24, 0 -74.3 M0 0 C-0.54 -28.51, -1.52 -58.44, 0 -74.3 M0 -74.3 C54.28 -74.1, 105.74 -75.02, 136.61 -73.72 M0 -74.3 C50.73 -73.87, 102.95 -74.56, 136.61 -73.72" stroke="#1e1e1e" stroke-width="2" fill="none"></path></g><g transform="translate(344.6341060202292 112.49835236545141) rotate(0 68.306982091702 -37.14940249100755)"><path d="M113.02 -65.45 C116.72 -66.74, 122.29 -67.65, 136.61 -73.72 M113.02 -65.45 C122.24 -68.04, 130.54 -72.02, 136.61 -73.72" stroke="#1e1e1e" stroke-width="2" fill="none"></path></g><g transform="translate(344.6341060202292 112.49835236545141) rotate(0 68.306982091702 -37.14940249100755)"><path d="M113.23 -82.55 C116.76 -79.92, 122.29 -76.91, 136.61 -73.72 M113.23 -82.55 C122.49 -78.42, 130.71 -75.68, 136.61 -73.72" stroke="#1e1e1e" stroke-width="2" fill="none"></path></g></g><mask></mask><g stroke-linecap="round"><g transform="translate(707.7396593407191 40.26398373459915) rotate(0 63.51348355102539 46.30332345738498)"><path d="M0 0 C51.96 -2.52, 100.8 -0.26, 127.03 0 M0 0 C29.59 0.43, 59.7 0.81, 127.03 0 M127.03 0 C125.91 37.34, 127.72 72.45, 125.83 92.61 M127.03 0 C125.45 31.65, 125.03 65.57, 125.83 92.61" stroke="#1e1e1e" stroke-width="2" fill="none"></path></g><g transform="translate(707.7396593407191 40.26398373459915) rotate(0 63.51348355102539 46.30332345738498)"><path d="M116.92 69.25 C121.72 76.96, 123.34 88.56, 125.83 92.61 M116.92 69.25 C119.09 75.01, 121.76 80.82, 125.83 92.61" stroke="#1e1e1e" stroke-width="2" fill="none"></path></g><g transform="translate(707.7396593407191 40.26398373459915) rotate(0 63.51348355102539 46.30332345738498)"><path d="M134.02 68.99 C131.99 76.94, 126.76 88.64, 125.83 92.61 M134.02 68.99 C132.22 74.79, 130.91 80.66, 125.83 92.61" stroke="#1e1e1e" stroke-width="2" fill="none"></path></g></g><mask></mask><g stroke-linecap="round"><g transform="translate(707.7396593407191 306.44960015604147) rotate(0 128.82457431178364 0.5286300860718711)"><path d="M0 0 C66.13 -0.55, 130.19 0.05, 257.65 1.06 M0 0 C87.06 1.37, 175.64 1.43, 257.65 1.06" stroke="#1e1e1e" stroke-width="2" fill="none"></path></g><g transform="translate(707.7396593407191 306.44960015604147) rotate(0 128.82457431178364 0.5286300860718711)"><path d="M234.18 9.67 C241.35 7.77, 245.85 5.99, 257.65 1.06 M234.18 9.67 C241.37 6.79, 250.53 3.49, 257.65 1.06" stroke="#1e1e1e" stroke-width="2" fill="none"></path></g><g transform="translate(707.7396593407191 306.44960015604147) rotate(0 128.82457431178364 0.5286300860718711)"><path d="M234.13 -7.43 C241.19 -5, 245.71 -2.45, 257.65 1.06 M234.13 -7.43 C241.48 -4.5, 250.65 -1.98, 257.65 1.06" stroke="#1e1e1e" stroke-width="2" fill="none"></path></g></g><mask></mask><g stroke-linecap="round"><g transform="translate(833.7112798586074 190.39229131008096) rotate(0 1.726078098569701 58.12086306395622)"><path d="M0 0 C1.5 39.48, 1.68 79.06, 3.45 116.24 M0 0 C2.73 31.02, 3.68 61.66, 3.45 116.24" stroke="#1e1e1e" stroke-width="2" fill="none"></path></g><g transform="translate(833.7112798586074 190.39229131008096) rotate(0 1.726078098569701 58.12086306395622)"><path d="M-5.17 92.77 C-1.11 101.08, 0.81 109.44, 3.45 116.24 M-5.17 92.77 C-1.86 98.91, 0.47 104.7, 3.45 116.24" stroke="#1e1e1e" stroke-width="2" fill="none"></path></g><g transform="translate(833.7112798586074 190.39229131008096) rotate(0 1.726078098569701 58.12086306395622)"><path d="M11.93 92.72 C10.24 100.89, 6.4 109.26, 3.45 116.24 M11.93 92.72 C10.66 99.03, 8.41 104.83, 3.45 116.24" stroke="#1e1e1e" stroke-width="2" fill="none"></path></g></g><mask></mask></svg>